<?xml version="1.0" encoding="UTF-8" standalone="no"?><!DOCTYPE svg PUBLIC "-//W3C//DTD SVG 1.1//EN" "http://www.w3.org/Graphics/SVG/1.1/DTD/svg11.dtd"><svg width="100%" height="100%" viewBox="0 0 800 800" version="1.1" xmlns="http://www.w3.org/2000/svg" xmlns:xlink="http://www.w3.org/1999/xlink" xml:space="preserve" xmlns:serif="http://www.serif.com/" style="fill-rule:evenodd;clip-rule:evenodd;stroke-linejoin:round;stroke-miterlimit:2;"><g><path d="M776.25,233.169c-0,-30.617 -24.858,-55.475 -55.475,-55.475l-641.55,0c-30.617,0 -55.475,24.858 -55.475,55.475l0,333.662c0,30.617 24.858,55.475 55.475,55.475l641.55,-0c30.617,-0 55.475,-24.858 55.475,-55.475l-0,-333.662Z" style="fill:#ff5454;"/><path d="M589.376,565.495l-14.052,14.529l154.1,1.453l3.747,0.969l8.431,-8.718l-0.468,-4.358l-1.874,-158.852l-14.051,14.529l1.405,141.901l-137.238,-1.453Z" style="fill:#fff;fill-rule:nonzero;"/><path d="M217.998,231.972l14.052,-14.529l-154.1,-1.453l-3.747,-0.969l-8.431,8.718l0.468,4.358l1.874,158.852l14.051,-14.529l-1.405,-141.901l137.238,1.453Z" style="fill:#fff;fill-rule:nonzero;"/><path d="M679.392,488.736l-0.46,-111.298c-0,-15.22 -2.837,-28.697 -8.51,-40.429c-5.674,-11.732 -13.11,-21.403 -22.311,-29.013c-9.2,-7.611 -19.78,-13.001 -31.74,-16.172c-11.96,-3.171 -24.38,-3.805 -37.26,-1.902c-8.586,1.268 -16.023,3.725 -22.31,7.372c-6.286,3.646 -11.653,7.927 -16.1,12.842c-4.447,4.915 -8.127,10.305 -11.04,16.171c-2.913,5.867 -5.137,11.812 -6.67,17.837c-3.68,-9.83 -8.74,-18.471 -15.18,-25.922c-6.44,-7.452 -13.8,-13.477 -22.08,-18.074c-8.28,-4.598 -17.327,-7.769 -27.14,-9.513c-9.813,-1.744 -19.933,-1.982 -30.36,-0.713c-7.36,0.951 -13.8,3.091 -19.32,6.421c-5.52,3.329 -10.274,6.896 -14.26,10.701c-3.987,3.805 -7.284,7.531 -9.89,11.178c-2.607,3.646 -4.37,6.104 -5.29,7.372l-1.38,1.903l-0,-35.197l-54.281,-0c0.307,0.317 1.38,0.951 3.22,1.902c1.84,0.951 3.834,2.141 5.981,3.567c2.146,1.427 3.986,3.171 5.52,5.232c1.533,2.062 2.3,4.202 2.3,6.421l-0,65.638c-2.454,2.536 -5.75,6.262 -9.89,11.177c-4.141,4.915 -8.511,9.988 -13.111,15.22c-4.6,5.232 -8.97,10.226 -13.11,14.983c-4.14,4.756 -7.436,8.244 -9.89,10.464l0,-48.039c0,-13.952 -2.223,-26.477 -6.67,-37.575c-4.446,-11.098 -10.656,-20.532 -18.63,-28.3c-7.973,-7.769 -17.403,-13.714 -28.29,-17.837c-10.886,-4.122 -22.617,-6.183 -35.19,-6.183c-1.84,0 -3.757,0.08 -5.75,0.238c-1.993,0.159 -4.063,0.396 -6.21,0.714c-18.4,1.902 -33.043,7.372 -43.93,16.409c-10.887,9.037 -20.623,21.8 -29.21,38.288l31.74,17.599c-0,-9.513 0.613,-18.233 1.84,-26.16c1.227,-7.927 3.373,-14.745 6.44,-20.452c3.067,-5.708 7.36,-10.385 12.88,-14.031c5.52,-3.647 12.573,-5.946 21.16,-6.897c13.187,-1.586 24.073,0.079 32.66,4.994c8.587,4.915 15.334,12.446 20.24,22.593c1.227,2.536 1.994,4.439 2.3,5.707c4.6,13.635 4.6,24.257 0,31.868c-4.6,7.61 -13.11,12.921 -25.53,15.933c-12.42,3.013 -26.757,5.47 -43.01,7.373c-26.373,3.487 -46.077,11.177 -59.11,23.068c-13.034,11.89 -18.63,27.824 -16.79,47.801c0.613,6.659 2.376,13.317 5.29,19.976c2.913,6.659 7.13,12.605 12.65,17.837c5.52,5.231 12.267,9.433 20.24,12.604c7.973,3.171 17.173,4.756 27.6,4.756l3.22,0c6.44,-0.317 14.107,-1.982 23,-4.994c8.893,-3.012 17.787,-7.372 26.68,-13.08c2.147,-1.268 4.754,-2.854 7.82,-4.756c3.067,-1.903 6.134,-3.964 9.2,-6.183c3.067,-2.22 6.057,-4.44 8.97,-6.659c2.914,-2.22 5.29,-4.122 7.13,-5.708c1.84,-1.585 3.834,-3.329 5.98,-5.232c1.84,-1.585 3.834,-3.329 5.98,-5.232c2.147,-1.902 4.447,-3.963 6.9,-6.183l18.4,-17.123c1.84,-1.902 4.83,-5.073 8.97,-9.512c4.14,-4.44 8.51,-9.275 13.11,-14.507c4.6,-5.232 9.047,-10.385 13.341,-15.458c4.293,-5.074 7.82,-9.037 10.58,-11.891c5.213,-5.708 10.426,-11.732 15.64,-18.074c5.213,-6.342 10.426,-12.842 15.64,-19.501c0.92,-1.268 1.916,-2.458 2.99,-3.567c1.073,-1.11 2.07,-2.458 2.99,-4.043c3.373,-4.122 6.44,-8.245 9.2,-12.367c0.92,-1.268 2.376,-3.408 4.37,-6.421c1.993,-3.012 4.753,-6.024 8.28,-9.037c3.526,-3.012 7.896,-5.787 13.11,-8.323c5.213,-2.537 11.5,-3.964 18.86,-4.281c8.587,0 16.56,2.299 23.92,6.897c7.36,4.597 13.647,10.939 18.86,19.025c5.213,8.086 9.277,17.44 12.19,28.062c2.913,10.623 4.37,21.642 4.37,33.057l0,104.639c0,2.537 -0.767,4.836 -2.3,6.897c-1.533,2.061 -3.22,3.884 -5.06,5.469c-1.84,1.586 -3.68,2.854 -5.52,3.805c-1.84,0.952 -3.22,1.427 -4.14,1.427l69.92,0c-0.613,0 -1.763,-0.475 -3.45,-1.427c-1.687,-0.951 -3.45,-2.219 -5.29,-3.805c-1.84,-1.585 -3.45,-3.408 -4.83,-5.469c-1.38,-2.061 -2.07,-4.36 -2.07,-6.897l0,-114.152c0.307,-8.878 1.303,-17.915 2.99,-27.111c1.687,-9.195 4.6,-17.44 8.74,-24.733c4.14,-7.293 9.66,-13.318 16.56,-18.074c6.9,-4.756 15.564,-7.293 25.99,-7.61c8.587,0 16.484,2.299 23.69,6.897c7.207,4.597 13.494,10.939 18.86,19.025c5.367,8.086 9.507,17.44 12.42,28.062c2.914,10.623 4.37,21.642 4.37,33.057l0,104.639c0,2.537 -0.766,4.836 -2.3,6.897c-1.533,2.061 -3.22,3.884 -5.06,5.469c-1.84,1.586 -3.68,2.854 -5.52,3.805c-1.84,0.952 -3.22,1.427 -4.14,1.427l69.461,0c-0.614,0 -1.764,-0.475 -3.45,-1.427c-1.687,-0.951 -3.374,-2.219 -5.06,-3.805c-1.687,-1.585 -3.22,-3.408 -4.6,-5.469c-1.38,-2.061 -2.07,-4.36 -2.07,-6.897Zm-421.822,-120.335l0,93.224c-1.533,1.585 -2.99,2.933 -4.37,4.043c-1.38,1.11 -2.836,2.14 -4.37,3.091c-2.453,1.903 -6.516,4.757 -12.19,8.562c-5.673,3.805 -12.113,7.768 -19.32,11.891c-7.207,4.122 -14.567,7.689 -22.08,10.701c-7.513,3.013 -14.49,4.519 -20.93,4.519c-6.747,-0 -12.957,-2.616 -18.63,-7.848c-5.673,-5.232 -10.12,-11.97 -13.34,-20.215c-3.22,-8.244 -4.83,-17.202 -4.83,-26.873c-0,-9.671 2.3,-18.946 6.9,-27.824c4.6,-8.879 11.807,-16.647 21.62,-23.306c9.813,-6.659 23,-11.098 39.56,-13.318c11.653,-1.585 21.697,-4.122 30.13,-7.61c8.434,-3.488 14.644,-8.403 18.63,-14.745c0.614,-0.951 1.074,-1.823 1.38,-2.616c0.307,-0.792 0.614,-1.664 0.92,-2.616c0.307,1.586 0.537,3.33 0.69,5.232c0.154,1.903 0.23,3.805 0.23,5.708Zm120.521,120.335l-0,-135.555l-37.26,44.233l-0,91.322c-0,2.537 -0.767,4.836 -2.3,6.897c-1.534,2.061 -3.22,3.884 -5.06,5.469c-1.84,1.586 -3.68,2.854 -5.521,3.805c-1.84,0.952 -3.22,1.427 -4.14,1.427l69.921,0c-0.614,0 -1.764,-0.475 -3.45,-1.427c-1.687,-0.951 -3.45,-2.219 -5.29,-3.805c-1.84,-1.585 -3.45,-3.408 -4.83,-5.469c-1.38,-2.061 -2.07,-4.36 -2.07,-6.897Zm-83.261,-0l0,-42.331c-6.746,6.341 -13.186,12.128 -19.32,17.36c-6.133,5.232 -12.113,10.543 -17.94,15.934l0,26.635l52.9,0c-0.613,0 -1.763,-0.475 -3.45,-1.427c-1.686,-0.951 -3.45,-2.219 -5.29,-3.805c-1.84,-1.585 -3.45,-3.408 -4.83,-5.469c-1.38,-2.061 -2.07,-4.36 -2.07,-6.897Z" style="fill:#fff;fill-rule:nonzero;"/><path d="M198.73,430.229c3.998,-0 7.371,-1.486 10.12,-4.457c2.748,-2.971 4.123,-6.524 4.123,-10.658c-0,-4.134 -1.375,-7.686 -4.123,-10.657c-2.749,-2.971 -6.122,-4.457 -10.12,-4.457c-4.248,-0 -7.746,1.486 -10.495,4.457c-2.749,2.971 -4.123,6.523 -4.123,10.657c0,4.134 1.374,7.687 4.123,10.658c2.749,2.971 6.247,4.457 10.495,4.457Zm-0,15.114c-4.248,-0 -7.746,1.421 -10.495,4.263c-2.749,2.842 -4.123,6.459 -4.123,10.851c0,4.134 1.374,7.622 4.123,10.464c2.749,2.842 6.247,4.263 10.495,4.263c3.998,-0 7.371,-1.421 10.12,-4.263c2.748,-2.842 4.123,-6.33 4.123,-10.464c-0,-4.392 -1.375,-8.009 -4.123,-10.851c-2.749,-2.842 -6.122,-4.263 -10.12,-4.263Z" style="fill:#fff;fill-rule:nonzero;"/></g></svg>